<?xml version="1.0" standalone="no"?>
<!DOCTYPE svg PUBLIC "-//W3C//DTD SVG 20010904//EN"
 "http://www.w3.org/TR/2001/REC-SVG-20010904/DTD/svg10.dtd">
<svg version="1.0" xmlns="http://www.w3.org/2000/svg"
 width="260.000000pt" height="260.000000pt" viewBox="0 0 260.000000 260.000000"
 preserveAspectRatio="xMidYMid meet">
<metadata>
Created by potrace 1.11, written by Peter Selinger 2001-2013
</metadata>
<g transform="translate(0.000000,260.000000) scale(0.100000,-0.100000)"
fill="#000000" stroke="none">
<path d="M1370 2149 c-110 -13 -180 -40 -285 -112 -111 -75 -204 -209 -241
-347 -10 -36 -19 -66 -20 -68 -1 -2 -20 8 -42 22 -68 43 -139 61 -237 61 -112
0 -154 -8 -224 -43 -199 -99 -312 -342 -256 -552 14 -52 44 -119 62 -138 7 -7
13 -17 13 -21 0 -5 23 -31 50 -59 55 -56 150 -114 220 -133 63 -17 497 -20
511 -3 6 7 6 15 1 18 -5 3 -7 17 -4 31 5 28 11 27 -106 31 -105 4 -168 25
-226 75 -49 43 -92 123 -97 179 -4 44 -8 47 -59 42 l-40 -4 6 -47 c10 -78 57
-172 111 -226 16 -16 14 -17 -23 -12 -248 34 -401 287 -314 520 87 231 368
326 573 193 71 -45 84 -63 91 -121 11 -96 71 -223 146 -308 38 -42 157 -137
174 -137 3 0 25 -9 49 -19 63 -29 107 -41 170 -46 l57 -5 0 43 0 44 -78 15
c-92 18 -152 44 -218 94 -262 197 -290 555 -63 786 63 65 165 126 240 145 53
13 207 12 260 -2 173 -46 325 -190 373 -354 24 -81 21 -93 -23 -118 -21 -12
-53 -34 -70 -49 l-32 -27 32 -33 32 -33 38 30 c70 55 124 73 225 73 62 0 97
-4 108 -13 9 -7 16 -11 16 -7 0 14 103 -59 136 -97 60 -71 78 -120 80 -223 2
-81 -1 -96 -27 -150 -61 -127 -172 -197 -329 -206 -3 0 -23 0 -44 1 l-39 1 25
23 c51 48 107 174 108 243 0 18 -7 23 -41 26 -44 4 -48 1 -55 -40 -15 -90 -73
-172 -150 -214 -48 -26 -102 -42 -134 -39 -20 2 -57 2 -67 0 -4 -1 -19 -1 -33
0 l-25 1 26 24 c52 48 95 139 106 222 4 37 2 42 -19 46 -46 8 -71 -5 -76 -40
-14 -126 -136 -244 -254 -246 -27 -1 -48 -3 -48 -6 0 -5 -68 -4 -80 0 -11 5
-106 -9 -150 -20 -135 -37 -269 -211 -266 -345 1 -29 3 -30 46 -30 l44 0 4 40
c9 94 77 186 170 232 l56 27 491 2 c473 1 492 2 552 23 81 28 117 50 180 112
110 109 151 263 111 420 -50 199 -227 333 -432 328 l-79 -2 -17 64 c-48 186
-193 350 -368 418 -108 41 -193 52 -302 40z"/>
</g>
</svg>
